<svg width="128" height="128" viewBox="0 0 128 128" fill="none" xmlns="http://www.w3.org/2000/svg">
<path d="M4.11328 4.09668C5.83841 4.18622 7.76264 4.33507 9.10352 4.49805C13.1127 4.98517 15.7225 5.57052 19.8086 6.90918C29.4558 10.0698 37.7186 15.5544 44.2227 23.0918C50.2954 30.1296 54.2442 38.2303 56.2783 47.9863L56.4697 48.9355L56.9209 51.2725L57 89.4111L57.0664 122.216C51.3018 120.527 43.4296 119.365 34.6934 118.815C26.3474 118.29 12.9034 118.622 4 119.512V62.1094C4 32.7124 4.00528 17.2473 4.05957 9.11523C4.07407 6.94415 4.09172 5.316 4.11328 4.09668ZM123.99 62.0098C124.007 79.0504 124.002 94.5397 123.98 105.767C123.97 111.381 123.955 115.926 123.937 119.064C123.936 119.203 123.933 119.339 123.933 119.473C112.954 118.305 96.9289 118.156 86.9307 119.192C80.7696 119.831 75.0722 120.824 70.7432 122.102L70.8096 90.1562C70.845 73.0317 70.8741 63.5336 70.9395 58.0391C71.006 52.446 71.1132 51.2483 71.2363 50.498C72.9418 40.1081 76.8701 31.3949 83.1279 23.9336C92.8373 12.3565 107.56 5.008 122.83 4.14746C123.203 4.12641 123.575 4.10781 123.934 4.09082L123.99 62.0098Z" stroke="#BC5D0B" stroke-width="8"/>
</svg>
