<svg width="309" height="58" viewBox="0 0 309 58" fill="none" xmlns="http://www.w3.org/2000/svg">
<path d="M0.0378671 0.013467L0.00518132 28.0965C-0.0124896 43.5422 0.016541 56.178 0.0694258 56.1762C0.122855 56.1743 0.598148 56.125 1.12608 56.0668C6.86413 55.4353 16.3288 55.3199 21.9953 55.812C26.7018 56.2206 30.5896 56.9337 32.5342 57.7445L33.1468 58L33.1045 40.848C33.0663 25.3372 33.041 23.5899 32.8447 22.5882C31.8635 17.5813 29.5856 13.327 25.934 9.68034C20.293 4.04682 11.7695 0.48729 2.91872 0.0695413C1.96795 0.0246301 0.930737 -0.00603471 0.613813 0.001006L0.0378671 0.013467ZM69.0245 0.0321584C68.6543 -0.0512922 65.707 0.0715578 64.063 0.238897C61.7463 0.474652 60.196 0.766522 57.8583 1.40796C52.2714 2.94101 47.4659 5.6102 43.6857 9.27933C40.0313 12.8266 37.7083 16.9264 36.5743 21.8292L36.2903 23.0561L36.2046 57.9654L37.3154 57.5933C40.1455 56.6466 44.9292 55.9467 50.6151 55.6471C55.657 55.3815 64.2931 55.6165 68.7044 56.1393L69.2487 56.2039V28.143C69.2487 1.50929 69.2371 0.0802699 69.0245 0.0321584ZM64.604 4.84832C64.6286 8.68109 64.6322 15.6101 64.6322 28.143V51.1521C59.9681 50.8835 54.2088 50.8113 50.3739 51.0134C46.9181 51.1954 43.6441 51.5279 40.8358 52.0085L40.9057 23.5941L41.0708 22.8799L41.1604 22.5055C42.1179 18.6552 43.9633 15.4608 46.8928 12.6172C50.0596 9.54345 54.1575 7.23339 59.0739 5.88428C60.9129 5.37966 62.1376 5.13001 63.7902 4.93555L64.5279 4.85512C64.5528 4.85258 64.5782 4.85084 64.604 4.84832ZM4.64881 4.85568C11.7617 5.61402 18.3392 8.63661 22.6801 12.9717C25.6881 15.9757 27.5149 19.4 28.3155 23.4854C28.3185 23.5 28.3813 23.7581 28.4181 26.3435C28.4531 28.8101 28.4688 33.0913 28.488 40.8594L28.5156 51.9547C26.6203 51.6299 24.5296 51.3751 22.3926 51.1895C17.6178 50.7749 10.4157 50.769 4.63698 51.1227C4.63339 50.1695 4.63008 49.0965 4.6274 47.9185C4.61581 42.836 4.61293 35.8213 4.62176 28.1022L4.64881 4.85568Z" fill="#BC5D0B"/>
<path d="M294.885 19.2423C294.751 17.5535 294.121 16.2362 292.995 15.2904C291.886 14.3447 290.197 13.8718 287.929 13.8718C286.484 13.8718 285.299 14.0491 284.375 14.4038C283.467 14.7415 282.795 15.206 282.358 15.7971C281.921 16.3882 281.695 17.0637 281.678 17.8237C281.644 18.4486 281.753 19.0143 282.005 19.521C282.274 20.0108 282.694 20.4583 283.266 20.8636C283.837 21.2521 284.568 21.6067 285.459 21.9276C286.349 22.2485 287.408 22.5356 288.634 22.7889L292.869 23.7009C295.725 24.3089 298.17 25.1111 300.203 26.1075C302.237 27.104 303.9 28.2777 305.194 29.6288C306.488 30.963 307.437 32.4661 308.042 34.138C308.664 35.81 308.983 37.634 309 39.6099C308.983 43.0214 308.135 45.9094 306.454 48.2738C304.774 50.6382 302.371 52.4368 299.246 53.6697C296.137 54.9025 292.398 55.519 288.029 55.519C283.543 55.519 279.628 54.8519 276.284 53.5177C272.957 52.1835 270.369 50.1315 268.521 47.3618C266.689 44.5752 265.765 41.0117 265.748 36.6713H279.056C279.14 38.2589 279.535 39.593 280.241 40.6739C280.947 41.7548 281.938 42.5739 283.215 43.1312C284.509 43.6885 286.047 43.9672 287.828 43.9672C289.323 43.9672 290.575 43.7814 291.583 43.4099C292.592 43.0383 293.356 42.5232 293.877 41.8646C294.398 41.2059 294.667 40.4544 294.684 39.6099C294.667 38.8162 294.406 38.1237 293.902 37.5326C293.415 36.9247 292.608 36.3842 291.483 35.9113C290.357 35.4216 288.836 34.9656 286.92 34.5434L281.779 33.4287C277.208 32.4323 273.604 30.7688 270.966 28.4382C268.344 26.0906 267.042 22.8903 267.059 18.837C267.042 15.5437 267.916 12.6642 269.68 10.1985C271.461 7.71589 273.923 5.78215 277.065 4.39729C280.224 3.01243 283.845 2.32 287.929 2.32C292.096 2.32 295.7 3.02087 298.742 4.42262C301.783 5.82438 304.127 7.80034 305.774 10.3505C307.437 12.8838 308.277 15.8477 308.294 19.2423H294.885Z" fill="white"/>
<path d="M249.27 3.02942H263.284V36.2661C263.284 40.218 262.343 43.638 260.461 46.5259C258.596 49.397 255.991 51.6178 252.647 53.1884C249.303 54.7422 245.422 55.5191 241.003 55.5191C236.55 55.5191 232.651 54.7422 229.307 53.1884C225.964 51.6178 223.359 49.397 221.494 46.5259C219.646 43.638 218.721 40.218 218.721 36.2661V3.02942H232.735V35.0501C232.735 36.6545 233.088 38.0901 233.794 39.3567C234.5 40.6065 235.474 41.586 236.718 42.2953C237.978 43.0046 239.406 43.3593 241.003 43.3593C242.616 43.3593 244.044 43.0046 245.287 42.2953C246.531 41.586 247.505 40.6065 248.211 39.3567C248.917 38.0901 249.27 36.6545 249.27 35.0501V3.02942Z" fill="white"/>
<path d="M191.145 54.9111H171.284V3.02942H190.943C196.253 3.02942 200.841 4.06807 204.705 6.14536C208.587 8.20577 211.578 11.1782 213.678 15.0625C215.796 18.93 216.854 23.5659 216.854 28.9702C216.854 34.3746 215.804 39.0189 213.704 42.9033C211.603 46.7708 208.629 49.7432 204.781 51.8205C200.933 53.8809 196.388 54.9111 191.145 54.9111ZM185.298 42.954H190.641C193.195 42.954 195.371 42.5402 197.169 41.7127C198.984 40.8851 200.362 39.458 201.303 37.4314C202.26 35.4048 202.739 32.5844 202.739 28.9702C202.739 25.3561 202.252 22.5357 201.277 20.5091C200.32 18.4825 198.908 17.0554 197.043 16.2278C195.195 15.4003 192.926 14.9865 190.238 14.9865H185.298V42.954Z" fill="white"/>
<path fill-rule="evenodd" clip-rule="evenodd" d="M147.885 3.02914C151.716 3.02914 155.069 3.73046 157.942 5.13221C160.815 6.53395 163.05 8.55195 164.647 11.1865C166.243 13.8211 167.041 16.9792 167.041 20.6608C167.041 24.3763 166.218 27.5096 164.571 30.0597C163.05 32.4401 160.95 34.2754 158.272 35.5669L168.755 54.9108H153.531L144.468 37.7861H139.618V54.9108H125.604V3.02914H147.885ZM139.618 26.8426H144.558C146.205 26.8425 147.608 26.6395 148.768 26.2342C149.944 25.8121 150.842 25.145 151.464 24.2331C152.103 23.3211 152.422 22.1301 152.422 20.6608C152.422 19.1747 152.103 17.9674 151.464 17.0386C150.842 16.0929 149.944 15.4002 148.768 14.9611C147.608 14.5051 146.205 14.2774 144.558 14.2774H139.618V26.8426Z" fill="white"/>
<path d="M123.16 28.9701C123.16 34.746 122.042 39.6184 119.807 43.5872C117.572 47.5391 114.556 50.5368 110.759 52.5803C106.961 54.607 102.727 55.6203 98.0554 55.6203C93.3505 55.6203 89.0992 54.5985 85.3017 52.555C81.5209 50.4946 78.5131 47.4884 76.2783 43.5365C74.0603 39.5677 72.9513 34.7123 72.9513 28.9701C72.9513 23.1943 74.0603 18.3304 76.2783 14.3784C78.5131 10.4096 81.5209 7.4119 85.3017 5.38527C89.0992 3.34176 93.3505 2.32 98.0554 2.32C102.727 2.32 106.961 3.34176 110.759 5.38527C114.556 7.4119 117.572 10.4096 119.807 14.3784C122.042 18.3304 123.16 23.1943 123.16 28.9701ZM108.742 28.9701C108.742 25.8626 108.331 23.2449 107.507 21.117C106.701 18.9721 105.499 17.3508 103.903 16.2531C102.323 15.1384 100.374 14.5811 98.0554 14.5811C95.7366 14.5811 93.779 15.1384 92.1827 16.2531C90.6031 17.3508 89.4017 18.9721 88.5783 21.117C87.7718 23.2449 87.3685 25.8626 87.3685 28.9701C87.3685 32.0776 87.7718 34.7038 88.5783 36.8487C89.4017 38.9766 90.6031 40.5979 92.1827 41.7126C93.779 42.8103 95.7366 43.3592 98.0554 43.3592C100.374 43.3592 102.323 42.8103 103.903 41.7126C105.499 40.5979 106.701 38.9766 107.507 36.8487C108.331 34.7038 108.742 32.0776 108.742 28.9701Z" fill="white"/>
</svg>
